<?xml version="1.0" encoding="UTF-8" standalone="no"?>
<svg
   xmlns:dc="http://purl.org/dc/elements/1.1/"
   xmlns:cc="http://creativecommons.org/ns#"
   xmlns:rdf="http://www.w3.org/1999/02/22-rdf-syntax-ns#"
   xmlns:svg="http://www.w3.org/2000/svg"
   xmlns="http://www.w3.org/2000/svg"
   xmlns:sodipodi="http://sodipodi.sourceforge.net/DTD/sodipodi-0.dtd"
   xmlns:inkscape="http://www.inkscape.org/namespaces/inkscape"
   version="1.1"
   x="0px"
   y="0px"
   viewBox="0 0 100 125"
   enable-background="new 0 0 100 100"
   xml:space="preserve"
   id="svg8"
   sodipodi:docname="fireStencil.svg"
   inkscape:version="1.0.2 (e86c870879, 2021-01-15, custom)"><metadata
     id="metadata14"><rdf:RDF><cc:Work
         rdf:about=""><dc:format>image/svg+xml</dc:format><dc:type
           rdf:resource="http://purl.org/dc/dcmitype/StillImage" /><dc:title></dc:title></cc:Work></rdf:RDF></metadata><defs
     id="defs12" /><sodipodi:namedview
     pagecolor="#ffffff"
     bordercolor="#666666"
     borderopacity="1"
     objecttolerance="10"
     gridtolerance="10"
     guidetolerance="10"
     inkscape:pageopacity="0"
     inkscape:pageshadow="2"
     inkscape:window-width="1920"
     inkscape:window-height="986"
     id="namedview10"
     showgrid="false"
     inkscape:zoom="4.5254834"
     inkscape:cx="28.642113"
     inkscape:cy="43.985676"
     inkscape:window-x="-11"
     inkscape:window-y="-11"
     inkscape:window-maximized="1"
     inkscape:current-layer="svg8" /><path
     d="M27.6373577,90.6150436c-10.787672-4.2459488-19.3097458-16.4183731-14.9462938-30.4353981  c0.3410139-1.0954628,0.7576256-2.0826797,1.2582664-2.8986855c0.0444565,2.9077072,0.7477674,6.3278008,2.712348,8.0067749  c0.1646214-7.3424263,7.8252048-13.2108994,7.8252048-18.7803421c0-0.8433647-0.1754799-1.6800537-0.5794258-2.5137863  c4.4003963,1.8527336,7.3206539,6.5037689,7.7785969,11.2262344c0.7211723-1.9627151,1.1044464-4.0620346,1.1044464-5.9425735  c0-6.0233421-2.140255-7.1473618-2.4155006-12.6522675C29.5,19.125,43.625,6.75,53.9666481,5  c-1.1560631,2.4828897-1.6616745,5.0120678-1.6616745,7.5315418c0,8.8731136,6.2711639,17.6258678,12.4865456,23.8124485  c0.167923,0.1671486,0.3514633,0.3276443,0.5459747,0.4833984c0.5076675-1.8902397,1.3440094-3.6766624,2.5475311-5.1189404  C69.7991562,40.4469719,84.625,48,80.25,60.875c4.625-3,6.5-6.625,7.4792404-11.0986481C90.25,59.75,94.75,85.75,66.7295914,95  c2.8707428-4.7244415,5.7882233-12.9102249,5.7019653-17.7048111c-0.0005951-0.0002213-0.0002365-0.0000839-0.000824-0.0003128  c-2.4587631,2.557457-5.498291,4.3600235-8.1179657,5.5996552c3.5008163-3.6056137,6.2292023-7.8817825,6.2292023-12.7714539  c0-2.9803772-0.8907471-4.8217773-1.8626328-6.6403999c-0.8855591,2.3523293-2.3098984,4.4182091-3.9956741,6.3473701  c0.2215424-1.253479,0.3371964-2.6089172,0.3371964-4.0920029c0-8.8968124-6.0119553-17.3388405-10.2048531-21.9103737  C54.7961845,54.7159576,37.300106,62.2722549,37.300106,76.2820053c0,1.7260361,0.165596,3.1696777,0.487915,4.3956833  c-3.2864304-2.1336136-5.542244-5.66082-6.4993191-9.6057053c-2.4321327,4.7658005-4.1318283,9.8938675-4.1318283,14.9930038  C27.1568737,87.5877304,27.3084488,89.1078873,27.6373577,90.6150436z"
     id="path2"
     style="stroke:#000000;fill:none" /></svg>
