<?xml version="1.0" encoding="UTF-8" standalone="no"?>
<svg
   xmlns:dc="http://purl.org/dc/elements/1.1/"
   xmlns:cc="http://creativecommons.org/ns#"
   xmlns:rdf="http://www.w3.org/1999/02/22-rdf-syntax-ns#"
   xmlns:svg="http://www.w3.org/2000/svg"
   xmlns="http://www.w3.org/2000/svg"
   xmlns:sodipodi="http://sodipodi.sourceforge.net/DTD/sodipodi-0.dtd"
   xmlns:inkscape="http://www.inkscape.org/namespaces/inkscape"
   version="1.1"
   id="svg32"
   width="448"
   height="320"
   viewBox="0 0 448 320"
   sodipodi:docname="rangerStencil.svg"
   inkscape:version="1.0.2 (e86c870879, 2021-01-15, custom)">
  <metadata
     id="metadata38">
    <rdf:RDF>
      <cc:Work
         rdf:about="">
        <dc:format>image/svg+xml</dc:format>
        <dc:type
           rdf:resource="http://purl.org/dc/dcmitype/StillImage" />
        <dc:title />
      </cc:Work>
    </rdf:RDF>
  </metadata>
  <defs
     id="defs36" />
  <sodipodi:namedview
     pagecolor="#ffffff"
     bordercolor="#666666"
     borderopacity="1"
     objecttolerance="10"
     gridtolerance="10"
     guidetolerance="10"
     inkscape:pageopacity="0"
     inkscape:pageshadow="2"
     inkscape:window-width="1920"
     inkscape:window-height="986"
     id="namedview34"
     showgrid="false"
     inkscape:zoom="3.3852737"
     inkscape:cx="179.74856"
     inkscape:cy="143.5537"
     inkscape:window-x="-11"
     inkscape:window-y="-11"
     inkscape:window-maximized="1"
     inkscape:current-layer="g40"
     inkscape:document-rotation="0" />
  <g
     inkscape:groupmode="layer"
     inkscape:label="Image"
     id="g40">
    <path
       style="fill:none;stroke-width:1.12;stroke:#000000;stroke-miterlimit:4;stroke-dasharray:none"
       d="m 211.78708,138.04871 c 4.03322,-4.45673 8.15284,-9.00142 9.15469,-10.09932 l 1.82157,-1.99618 -4.01153,-4.46068 c -2.20634,-2.45337 -8.86699,-10.07668 -14.80145,-16.94068 l -10.78994,-12.479999 -15.67125,-23.679998 -15.67125,-23.68 -5.72864,-11.84 c -5.62013,-11.615702 -5.76595,-11.969942 -7.69735,-18.699346 l -1.9687,-6.8593457 -0.56374,3.0193457 c -0.31005,1.660641 -0.63613,3.883346 -0.72461,4.939346 -0.26978,3.219782 0.80907,18.543942 2.174,30.88 1.22275,11.050941 1.42112,12.248589 3.6832,22.237238 2.04703,9.03898 2.8544,11.91522 5.61409,20 2.68775,7.87403 7.09576,18.897209 9.12903,22.829119 0.26925,0.52067 2.72044,3.73173 5.44709,7.13568 l 4.95754,6.18901 9.75948,8.04203 c 10.10262,8.32477 17.97099,14.25224 18.3415,13.81719 0.11723,-0.13765 3.51305,-3.89668 7.54627,-8.35341 z"
       id="path78" />
    <path
       style="fill:none;stroke-width:1.12;stroke:#000000;stroke-miterlimit:4;stroke-dasharray:none"
       d="m 232.40021,247.18704 c -1.496,-0.45487 -2.75561,-0.84948 -2.79913,-0.87691 -0.17226,-0.10857 -1.68087,-12.88744 -1.68087,-14.23804 0,-2.17294 1.13617,-7.70245 2.44434,-11.89606 0.98914,-3.17092 1.37632,-3.96561 2.56051,-5.25543 1.24758,-1.35888 1.39515,-1.68434 1.39515,-3.07693 0,-0.92581 -0.25952,-2.06602 -0.64,-2.81182 -0.352,-0.68998 -0.64,-1.40424 -0.64,-1.58725 0,-0.55947 1.11216,-0.37418 3.03336,0.50537 1.65304,0.75679 2.0027,1.10613 3.6032,3.6 0.97708,1.52246 3.12726,4.13922 4.79137,5.83109 l 3.01886,3.0692 0.40219,4.1308 c 0.4722,4.84976 0.1739,12.96129 -0.50871,13.83316 -0.23115,0.29524 -1.74323,2.12879 -3.36017,4.07458 -2.93911,3.53683 -2.94064,3.53806 -5.63208,4.56042 -1.4807,0.56244 -2.82174,1.00963 -2.9801,0.99374 -0.15836,-0.0159 -1.51192,-0.40105 -3.00792,-0.85592 z"
       id="path72" />
    <path
       style="fill:none;stroke-width:1.12;stroke:#000000;stroke-miterlimit:4;stroke-dasharray:none"
       d="m 214.70266,247.01626 c -2.43765,-0.96001 -2.56812,-1.06852 -5.44,-4.52443 -1.61835,-1.94745 -3.13157,-3.78237 -3.36272,-4.07761 -0.68261,-0.87187 -0.98091,-8.9834 -0.50871,-13.83316 l 0.40219,-4.1308 3.01886,-3.0692 c 1.66411,-1.69187 3.81429,-4.30863 4.79137,-5.83109 1.6005,-2.49387 1.95016,-2.84321 3.6032,-3.6 1.9212,-0.87955 3.03336,-1.06484 3.03336,-0.50537 0,0.18301 -0.288,0.89727 -0.64,1.58725 -0.37735,0.73967 -0.63943,1.88353 -0.63862,2.78725 0.001,1.359 0.15899,1.70656 1.39175,3.06602 1.17341,1.29402 1.57275,2.11793 2.55913,5.28 1.31116,4.20323 2.44774,9.73207 2.44774,11.90697 0,1.35124 -1.50881,14.13084 -1.68087,14.23698 -0.27955,0.17246 -5.95553,1.75592 -6.18973,1.72679 -0.15917,-0.0198 -1.4133,-0.47862 -2.78695,-1.0196 z"
       id="path68" />
    <path
       style="fill:none;stroke-width:1.12;stroke:#000000;stroke-miterlimit:4;stroke-dasharray:none"
       d="m 249.79993,265.6945 c -1.50751,-1.0512 -2.77383,-2.2817 -3.73663,-3.63094 -1.4138,-1.98127 -1.46288,-2.12994 -1.68017,-5.09008 -0.20678,-2.81699 -0.16104,-3.20613 0.60059,-5.10991 0.45343,-1.13339 0.98059,-2.75759 1.17147,-3.60934 0.19422,-0.86664 1.29425,-3.11497 2.49795,-5.1055 1.2746,-2.10778 2.46668,-4.56815 2.92601,-6.03908 0.7175,-2.29767 0.7474,-2.65452 0.40219,-4.8 -0.20511,-1.27479 -0.46357,-2.6418 -0.57436,-3.0378 -0.61195,-2.18753 3.90046,1.23455 5.70633,4.3275 0.69123,1.18388 1.881,3.1008 2.64393,4.25982 0.76294,1.15904 2.42241,4.25504 3.68771,6.88 l 2.30054,4.77268 -0.29006,3.53003 -0.29006,3.53002 -2.12152,3.50998 c -1.17613,1.94585 -2.89899,4.27338 -3.8662,5.22311 l -1.74468,1.71314 -2.67638,0.13321 -2.67638,0.13321 z"
       id="path64" />
    <path
       style="fill:none;stroke-width:1.12;stroke:#000000;stroke-miterlimit:4;stroke-dasharray:none"
       d="m 196.5602,267.04328 c -1.33559,-0.23608 -4.08381,-3.25571 -6.29999,-6.92216 l -2.09788,-3.47073 -0.31767,-3.56927 -0.31767,-3.56927 2.30451,-4.77268 c 1.26748,-2.62496 2.92873,-5.72096 3.69167,-6.88 0.76293,-1.15902 1.9527,-3.07594 2.64393,-4.25982 1.80588,-3.09295 6.31829,-6.51503 5.70634,-4.3275 -0.11079,0.396 -0.36925,1.76301 -0.57436,3.0378 -0.34542,2.14683 -0.31562,2.50066 0.4041,4.79699 0.44841,1.43069 1.69134,4.00911 2.93891,6.09666 1.18904,1.98961 2.31226,4.28844 2.49604,5.10851 0.18378,0.82008 0.70514,2.41837 1.15857,3.55176 0.76163,1.90378 0.80737,2.29292 0.60059,5.10991 -0.21617,2.94483 -0.27229,3.11712 -1.6396,5.03323 -0.94916,1.33012 -2.19793,2.52473 -3.78893,3.62458 -2.23111,1.54237 -2.48492,1.63795 -4.24085,1.59698 -1.02723,-0.024 -2.22771,-0.10721 -2.66771,-0.18499 z"
       id="path60" />
    <path
       style="fill:none;stroke-width:1.12;stroke:#000000;stroke-miterlimit:4;stroke-dasharray:none"
       d="m 204.24021,290.05121 c -1.75263,-0.45817 -2.57192,-0.94542 -5.2055,-3.09584 -2.53743,-2.0719 -3.45564,-3.07284 -4.88001,-5.3197 -0.96498,-1.52218 -1.7545,-3.03734 -1.7545,-3.36702 0,-0.32968 0.54,-1.26254 1.2,-2.07301 1.08794,-1.33598 1.58339,-1.61975 5.30536,-3.03869 3.35497,-1.27903 4.46205,-1.87228 6.05686,-3.2457 2.06044,-1.77441 2.25425,-2.07812 6.58606,-10.32043 l 2.6073,-4.96103 4.33499,-1.5723 c 4.28091,-1.55269 4.38257,-1.57231 8.14944,-1.57231 3.76687,0 3.86853,0.0196 8.14944,1.57231 l 4.33499,1.5723 2.6073,4.96103 c 4.33181,8.24231 4.52562,8.54602 6.58606,10.32043 1.59481,1.37342 2.70189,1.96667 6.05686,3.2457 3.72196,1.41894 4.21741,1.70271 5.30535,3.03869 0.66,0.81047 1.2,1.74333 1.2,2.07301 0,0.32968 -0.79299,1.85031 -1.7622,3.37917 -1.4517,2.28997 -2.32697,3.23756 -4.96752,5.37796 -2.87717,2.33219 -3.43473,2.65037 -5.44594,3.10781 l -2.24061,0.50962 -8.23187,-1.97033 c -11.19861,-2.68043 -11.93103,-2.68024 -23.18551,0.006 -4.50037,1.07415 -8.30486,1.9447 -8.45442,1.93455 -0.14956,-0.0102 -1.20793,-0.26314 -2.35193,-0.5622 z"
       id="path56" />
    <path
       style="fill:none;stroke-width:1.12;stroke:#000000;stroke-miterlimit:4;stroke-dasharray:none"
       d="m 299.65169,294.7643 c 0.5293,-0.28328 0.61196,-0.54717 0.44693,-1.42688 -0.26072,-1.38974 0.8019,-3.53861 3.42021,-6.91645 l 1.91993,-2.47689 -0.4032,-2.13685 c -0.41596,-2.20455 -0.5005,-2.32418 -2.81033,-3.97713 -1.72815,-1.2367 -1.88868,-1.66535 -1.05969,-2.82956 l 0.66509,-0.93402 -2.23246,-6.03734 c -1.22784,-3.32053 -2.23367,-6.25333 -2.23516,-6.51733 -0.002,-0.264 0.35511,-1.632 0.79244,-3.04 0.43734,-1.408 0.79732,-2.70909 0.79996,-2.89132 0.003,-0.18222 -0.90422,-0.77958 -2.01525,-1.32745 -1.65813,-0.81766 -2.2833,-0.96646 -3.48939,-0.83051 l -1.46934,0.16561 -0.3811,-1.87816 c -0.20961,-1.033 -0.56238,-2.74217 -0.78392,-3.79817 -0.22155,-1.056 -3.22053,-8.904 -6.6644,-17.44 -5.02154,-12.44644 -6.40496,-16.20509 -6.9856,-18.97939 l -0.72403,-3.45938 -3.27062,-1.83842 c -2.89712,-1.62846 -3.63956,-2.24366 -6.50109,-5.38689 l -3.23046,-3.54847 0.004,-3.31373 c 0.003,-1.82255 0.0847,-3.61276 0.18282,-3.97825 0.10743,-0.40006 0.86655,-1.002 1.90746,-1.51252 l 1.72902,-0.84799 -0.65421,-1.52748 c -0.62859,-1.46764 -20.13181,-33.40585 -20.92582,-34.26784 -0.31486,-0.34181 -1.09649,0.008 -4.18317,1.87216 -3.02195,1.82506 -4.77719,3.21403 -8.60821,6.8119 -2.64674,2.48566 -4.79634,4.67868 -4.77689,4.87338 0.0195,0.1947 3.00409,3.94251 6.63253,8.32846 6.34049,7.66422 6.87939,8.42886 13.85181,19.65446 6.63744,10.68628 7.72958,12.66011 12.83683,23.2 7.25528,14.97281 15.33306,34.84661 20.16012,49.6 3.24835,9.92826 3.36773,10.39587 3.92129,15.36 l 0.57095,5.12 1.23119,0.96 c 2.4958,1.94604 3.31993,2.93105 3.31993,3.968 0,0.95124 0.0559,0.99265 1.36,1.00784 0.93507,0.0109 2.10989,0.40588 3.76,1.26416 2.6347,1.3704 2.93756,1.44297 3.89148,0.93245 z"
       id="path54" />
    <path
       style="fill:none;stroke-width:1.12;stroke:#000000;stroke-miterlimit:4;stroke-dasharray:none"
       d="m 154.6402,293.83185 c 1.7089,-0.85922 2.96891,-1.28 3.8329,-1.28 1.22601,0 1.2871,-0.0471 1.2871,-0.992 0,-1.03695 0.82413,-2.02196 3.31992,-3.968 l 1.23119,-0.96 0.57094,-5.12 c 0.55356,-4.96413 0.67294,-5.43174 3.9213,-15.36 4.82705,-14.75339 12.90484,-34.62719 20.16012,-49.6 5.10863,-10.54275 6.19767,-12.51082 12.83783,-23.2 7.1614,-11.52829 7.35425,-11.79935 14.84718,-20.86848 7.49856,-9.07595 7.66403,-9.24872 13.51153,-14.10788 3.256,-2.70567 7.50899,-5.92861 9.45108,-7.16209 6.55477,-4.16312 15.05978,-10.52831 24.87917,-18.61971 l 9.77012,-8.05079 4.95754,-6.18901 c 2.72665,-3.40395 5.17784,-6.61501 5.44709,-7.13568 2.03327,-3.93191 6.44128,-14.955089 9.12903,-22.829119 2.75969,-8.08478 3.56706,-10.96102 5.61409,-20 2.26208,-9.988649 2.46045,-11.186297 3.6832,-22.237238 1.36493,-12.336058 2.44378,-27.660218 2.174,-30.88 -0.0885,-1.056 -0.41456,-3.278705 -0.72461,-4.939346 l -0.56374,-3.0193457 -1.9718,6.8593457 c -1.93181,6.720194 -2.08795,7.099538 -7.69693,18.699346 l -5.72512,11.84 -15.67164,23.68 -15.67164,23.679998 -9.77992,11.342629 c -11.0751,12.84477 -21.315,24.34139 -22.10451,24.81737 -1.40129,0.84481 -15.66176,17.13188 -18.98055,21.67796 -3.73271,5.11306 -21.40601,33.41719 -22.58451,36.16952 l -0.65403,1.52748 1.72902,0.84799 c 1.04092,0.51052 1.80004,1.11246 1.90747,1.51252 0.0981,0.36549 0.18041,2.1557 0.18281,3.97825 l 0.004,3.31373 -3.23046,3.54847 c -2.86153,3.14323 -3.60397,3.75843 -6.50109,5.38689 l -3.27062,1.83842 -0.72457,3.45938 c -0.58081,2.77303 -1.96699,6.53863 -6.98662,18.97939 -3.44413,8.536 -6.44286,16.384 -6.66385,17.44 -0.22099,1.056 -0.5733,2.76517 -0.78291,3.79817 l -0.3811,1.87816 -1.46934,-0.16561 c -1.20609,-0.13595 -1.83126,0.0129 -3.48939,0.83051 -1.11103,0.54787 -2.01789,1.14523 -2.01525,1.32745 0.003,0.18223 0.36262,1.48332 0.79996,2.89132 0.43733,1.408 0.79393,2.776 0.79244,3.04 -0.002,0.264 -1.00732,3.1968 -2.23516,6.51733 l -2.23246,6.03734 0.66509,0.93402 c 0.82899,1.16421 0.66846,1.59286 -1.05969,2.82956 -2.30983,1.65295 -2.39437,1.77258 -2.81033,3.97713 l -0.4032,2.13685 1.91993,2.47689 c 2.61445,3.37287 3.68083,5.52724 3.42113,6.91157 -0.15826,0.84362 -0.0749,1.14808 0.38796,1.41715 0.90742,0.52749 1.21887,0.45511 3.94953,-0.91784 z"
       id="path50" />
  </g>
</svg>
