<?xml version="1.0" encoding="UTF-8" standalone="no"?>
<svg
   xmlns:dc="http://purl.org/dc/elements/1.1/"
   xmlns:cc="http://creativecommons.org/ns#"
   xmlns:rdf="http://www.w3.org/1999/02/22-rdf-syntax-ns#"
   xmlns:svg="http://www.w3.org/2000/svg"
   xmlns="http://www.w3.org/2000/svg"
   xmlns:sodipodi="http://sodipodi.sourceforge.net/DTD/sodipodi-0.dtd"
   xmlns:inkscape="http://www.inkscape.org/namespaces/inkscape"
   version="1.1"
   x="0px"
   y="0px"
   viewBox="0 0 100 125"
   enable-background="new 0 0 100 100"
   xml:space="preserve"
   id="svg14"
   sodipodi:docname="rangerStencil.svg"
   inkscape:version="1.0.2 (e86c870879, 2021-01-15, custom)"><metadata
     id="metadata20"><rdf:RDF><cc:Work
         rdf:about=""><dc:format>image/svg+xml</dc:format><dc:type
           rdf:resource="http://purl.org/dc/dcmitype/StillImage" /><dc:title></dc:title></cc:Work></rdf:RDF></metadata><defs
     id="defs18" /><sodipodi:namedview
     pagecolor="#ffffff"
     bordercolor="#666666"
     borderopacity="1"
     objecttolerance="10"
     gridtolerance="10"
     guidetolerance="10"
     inkscape:pageopacity="0"
     inkscape:pageshadow="2"
     inkscape:window-width="1920"
     inkscape:window-height="986"
     id="namedview16"
     showgrid="false"
     inkscape:zoom="4.5254834"
     inkscape:cx="43.334665"
     inkscape:cy="43.080685"
     inkscape:window-x="-11"
     inkscape:window-y="-11"
     inkscape:window-maximized="1"
     inkscape:current-layer="g6" /><g
     id="g6"
     style="fill:none;stroke:#000000"><path
       style="fill:none;stroke:#000000"
       d="m 93.786,20.382 -0.055,0.055 -33.724,33.763 6.712,6.709 c 0.437,-0.109 0.819,-0.164 1.255,-0.164 h 9.059 c 1.91,0 3.765,0.764 5.13,2.127 l 10.75,10.745 c 1.419,1.418 2.128,3.327 2.074,5.127 0,1.473 -0.437,2.945 -1.31,4.145 -0.819,1.255 -2.183,2.291 -3.765,2.782 l -3.274,0.982 -0.982,3.273 C 85.165,91.508 84.183,92.817 82.927,93.69 81.671,94.563 80.252,95 78.724,95 76.978,95 75.068,94.291 73.649,92.873 L 62.899,82.128 C 61.535,80.764 60.771,78.91 60.771,77.001 v -9 c 0,-0.436 0.055,-0.873 0.164,-1.309 L 54.223,59.983 20.88,93.255 20.334,93.8 c -0.6,0.545 -1.364,0.982 -2.128,1.145 C 17.933,94.945 17.66,95 17.442,95 17.169,95 16.896,94.945 16.623,94.891 15.859,94.727 15.15,94.4 14.55,93.8 14.168,93.418 13.841,92.982 13.677,92.491 13.459,92 13.35,91.455 13.35,90.909 c 0,-0.545 0.109,-1.091 0.327,-1.582 0.164,-0.491 0.491,-0.927 0.873,-1.309 h 0.055 l 0.491,-0.491 c 2.347,-2.673 3.492,-5.945 3.492,-9.436 0,-2.236 -0.491,-4.582 -1.473,-6.764 C 14.659,66.091 13.35,60.254 13.35,54.2 c 0,-2.618 0.218,-5.291 0.764,-7.964 1.255,-6.709 4.202,-12.818 8.458,-17.891 l -9.386,-9.382 v 4.473 c 0,2.236 -1.855,4.091 -4.093,4.091 C 6.801,27.527 5,25.673 5,23.436 V 9.091 C 5,8.055 5.382,6.964 6.201,6.2 7.02,5.436 8.056,5 9.093,5 H 23.39 c 2.292,0 4.093,1.855 4.093,4.091 0,2.236 -1.801,4.091 -4.093,4.091 h -4.42 l 9.386,9.382 c 5.02,-4.2 11.132,-7.145 17.79,-8.455 2.674,-0.491 5.402,-0.764 8.022,-0.764 6.112,0 11.896,1.364 17.135,3.764 2.183,0.982 4.475,1.527 6.767,1.527 3.711,-0.055 7.203,-1.364 9.932,-4.036 l 0.055,-0.055 c 0.982,-0.982 2.347,-1.364 3.656,-1.145 0.546,0.109 1.037,0.327 1.473,0.6 0.218,0.164 0.437,0.327 0.655,0.545 0.218,0.218 0.382,0.436 0.546,0.709 0.819,1.364 0.819,3.055 0,4.418 -0.164,0.218 -0.327,0.436 -0.546,0.655 z"
       id="path32" /></g></svg>
