<?xml version="1.0" encoding="UTF-8" standalone="no"?>
<svg
   xmlns:dc="http://purl.org/dc/elements/1.1/"
   xmlns:cc="http://creativecommons.org/ns#"
   xmlns:rdf="http://www.w3.org/1999/02/22-rdf-syntax-ns#"
   xmlns:svg="http://www.w3.org/2000/svg"
   xmlns="http://www.w3.org/2000/svg"
   xmlns:sodipodi="http://sodipodi.sourceforge.net/DTD/sodipodi-0.dtd"
   xmlns:inkscape="http://www.inkscape.org/namespaces/inkscape"
   height="100px"
   width="100px"
   fill="#000000"
   version="1.1"
   x="0px"
   y="0px"
   viewBox="-5.195 -17.64 100 100"
   enable-background="new -5.195 -17.64 100 100"
   xml:space="preserve"
   id="svg4"
   sodipodi:docname="treeStencil.svg"
   inkscape:version="1.0.2 (e86c870879, 2021-01-15, custom)"><metadata
     id="metadata10"><rdf:RDF><cc:Work
         rdf:about=""><dc:format>image/svg+xml</dc:format><dc:type
           rdf:resource="http://purl.org/dc/dcmitype/StillImage" /><dc:title></dc:title></cc:Work></rdf:RDF></metadata><defs
     id="defs8" /><sodipodi:namedview
     pagecolor="#ffffff"
     bordercolor="#666666"
     borderopacity="1"
     objecttolerance="10"
     gridtolerance="10"
     guidetolerance="10"
     inkscape:pageopacity="0"
     inkscape:pageshadow="2"
     inkscape:window-width="1920"
     inkscape:window-height="986"
     id="namedview6"
     showgrid="false"
     inkscape:zoom="8"
     inkscape:cx="45.273908"
     inkscape:cy="45.477245"
     inkscape:window-x="-11"
     inkscape:window-y="-11"
     inkscape:window-maximized="1"
     inkscape:current-layer="svg4"
     inkscape:document-rotation="0" /><path
     style="fill:none;stroke:#000000;stroke-width:1.48859"
     d="M 74.055102,37.486436 H 67.445495 L 67.28,54.203441 c 4.188291,1.808514 6.775102,2.264559 6.775102,2.264559 z"
     id="path22" /><path
     style="fill:none;stroke:#000000;stroke-width:1.57954"
     d="M 20.634404,38.095774 H 12.855 V 52.877 c 0,0 3.918983,-3.054659 7.779404,-3.269806 z"
     id="path20" /><path
     style="fill:none;stroke:#000000"
     d="m 60.944,20.969 10.297,12.573 h 8.825 l -6.188,-8.647 h 4.888 L 68.382,0.53 l -5.874,12.58 7.154,7.906 z"
     id="path18" /><path
     style="fill:none;stroke:#000000"
     d="M 17.205,33.459 27.63,21.016 h -8.923 l 7.849,-8.678 -4.376,-6.16 -9.958,14.027 h 4.27 l -9.25,13.254 z"
     id="path16" /><path
     style="fill:none;stroke:#000000"
     d="M 47.938,49.098 V 41.344 H 63.07 L 51.92,28.048 h 8.686 l -10.7,-11.827 h 6.383 L 44.432,-0.625 32.583,16.222 h 6.375 L 28.264,28.048 h 8.682 L 25.805,41.344 h 15.114 v 6.602 c 3.636,0.015 7.019,1.152 7.019,1.152 z"
     id="path14" /><path
     style="stroke:#000000;fill:none"
     d="m 53.075,54.975 c 20.879,8.143 32.001,1.531 36.534,9.744 H 0 c 0,0 25.201,-20.617 53.075,-9.744 z"
     id="path2" /></svg>
